<svg width="20" height="24" viewBox="0 0 20 24" fill="none" xmlns="http://www.w3.org/2000/svg">
<path d="M19.8549 0V19.6983L2.29583 21.6145L0.14502 21.8492V2.15081C0.14502 1.55686 0.385488 1.01892 0.774738 0.629672C1.16399 0.240422 1.70188 0 2.29583 0L19.8549 0Z" fill="#DA4A54"/>
<path d="M2.29583 0V21.6145L0.14502 21.8492V2.15081C0.14502 1.55686 0.385488 1.01892 0.774738 0.629672C1.16399 0.240422 1.70188 0 2.29583 0V0Z" fill="#C32430"/>
<path d="M19.8551 19.6985H2.29574C1.10793 19.6985 0.14502 20.6614 0.14502 21.8492C0.14502 23.037 1.10793 23.9999 2.29574 23.9999H19.8551V22.7927L18.98 21.8492L19.8551 20.9057V19.6985Z" fill="#C32430"/>
<path d="M2.29579 22.7928C1.77553 22.7928 1.35229 22.3695 1.35229 21.8493C1.35229 21.329 1.77553 20.9058 2.29579 20.9058H19.8551V22.7928H2.29579Z" fill="#DFEAEF"/>
<path d="M7.88973 4.66317L6.32621 3.05845L4.7627 4.66317V0H7.88973V4.66317Z" fill="#F4DD45"/>
<path d="M14.7072 6.01135H6.36935C5.53338 6.01135 4.85571 6.68902 4.85571 7.52499V12.1436C4.85571 12.9796 5.53338 13.6573 6.36935 13.6573H14.7072C15.5432 13.6573 16.2208 12.9796 16.2208 12.1436V7.52499C16.2208 6.68902 15.5432 6.01135 14.7072 6.01135Z" fill="#DFEAEF"/>
<path d="M14.7071 14.0195H6.36925C5.33491 14.0195 4.49341 13.178 4.49341 12.1436V7.52497C4.49341 6.49067 5.33491 5.64917 6.36925 5.64917H14.7071C15.7414 5.64917 16.5829 6.49067 16.5829 7.52497V12.1436C16.5829 13.178 15.7414 14.0195 14.7071 14.0195ZM6.36925 6.37353C5.73433 6.37353 5.21777 6.89009 5.21777 7.52497V12.1436C5.21777 12.7785 5.73433 13.2951 6.36925 13.2951H14.7071C15.342 13.2951 15.8586 12.7785 15.8586 12.1436V7.52497C15.8586 6.89005 15.342 6.37353 14.7071 6.37353H6.36925Z" fill="#C32430"/>
<path d="M13.9399 9.23701H7.13633C6.93631 9.23701 6.77417 9.07487 6.77417 8.87485C6.77417 8.67484 6.93631 8.5127 7.13633 8.5127H13.9398C14.1398 8.5127 14.302 8.67484 14.302 8.87485C14.302 9.07487 14.1399 9.23701 13.9399 9.23701Z" fill="#665E66"/>
<path d="M13.9399 11.1558H7.13633C6.93631 11.1558 6.77417 10.9937 6.77417 10.7937C6.77417 10.5937 6.93631 10.4315 7.13633 10.4315H13.9398C14.1398 10.4315 14.302 10.5937 14.302 10.7937C14.302 10.9937 14.1399 11.1558 13.9399 11.1558Z" fill="#665E66"/>
</svg>
