<svg width="24" height="25" viewBox="0 0 24 25" fill="none" xmlns="http://www.w3.org/2000/svg">
<path fill-rule="evenodd" clip-rule="evenodd" d="M21.0886 10.8513C21.0886 7.50011 21.0886 5.82453 20.2843 4.62089C19.9362 4.09981 19.4888 3.65242 18.9677 3.30425C17.7641 2.5 16.0885 2.5 12.7373 2.5H10.3513C7.00011 2.5 5.32453 2.5 4.12089 3.30425C3.59981 3.65242 3.15242 4.09981 2.80425 4.62089C2 5.82453 2 7.50011 2 10.8513C2 14.2024 2 15.878 2.80425 17.0816C3.15242 17.6027 3.59981 18.0501 4.12089 18.3983C5.17237 19.1009 6.584 19.1897 9.15822 19.2009V19.2025L10.4772 21.8405C10.9169 22.7198 12.1717 22.7198 12.6114 21.8405L13.9304 19.2025V19.2009C16.5046 19.1897 17.9162 19.1009 18.9677 18.3983C19.4888 18.0501 19.9362 17.6027 20.2843 17.0816C21.0886 15.878 21.0886 14.2024 21.0886 10.8513ZM7.96519 7.46519C7.4129 7.46519 6.96519 7.9129 6.96519 8.46519C6.96519 9.01747 7.4129 9.46519 7.96519 9.46519H15.1234C15.6757 9.46519 16.1234 9.01747 16.1234 8.46519C16.1234 7.9129 15.6757 7.46519 15.1234 7.46519H7.96519ZM7.96519 12.2373C7.4129 12.2373 6.96519 12.6851 6.96519 13.2373C6.96519 13.7896 7.4129 14.2373 7.96519 14.2373H11.5443C12.0966 14.2373 12.5443 13.7896 12.5443 13.2373C12.5443 12.6851 12.0966 12.2373 11.5443 12.2373H7.96519Z" fill="#404040"/>
</svg>
