<svg width="24" height="25" viewBox="0 0 24 25" fill="none" xmlns="http://www.w3.org/2000/svg">
<path d="M9.96364 19.7279C10.4636 19.6222 13.5097 19.6222 14.0097 19.7279C14.437 19.8266 14.8992 20.0573 14.8992 20.5608C14.8743 21.0402 14.593 21.4653 14.2044 21.7352C13.7006 22.128 13.1092 22.3767 12.491 22.4664C12.1491 22.5107 11.8132 22.5117 11.4833 22.4664C10.8641 22.3767 10.2727 22.128 9.76984 21.7342C9.38024 21.4653 9.09898 21.0402 9.07413 20.5608C9.07413 20.0573 9.53628 19.8266 9.96364 19.7279ZM12.0457 2.5C14.1258 2.5 16.2507 3.48702 17.5129 5.12466C18.3319 6.17916 18.7075 7.23265 18.7075 8.8703V9.29633C18.7075 10.5523 19.0395 11.2925 19.77 12.1456C20.3236 12.7741 20.5005 13.5808 20.5005 14.456C20.5005 15.3302 20.2132 16.1601 19.6378 16.8339C18.8844 17.6417 17.822 18.1573 16.7377 18.247C15.1664 18.3809 13.5941 18.4937 12.001 18.4937C10.4068 18.4937 8.83551 18.4263 7.26421 18.247C6.17891 18.1573 5.11648 17.6417 4.36412 16.8339C3.78868 16.1601 3.50046 15.3302 3.50046 14.456C3.50046 13.5808 3.67836 12.7741 4.23095 12.1456C4.98429 11.2925 5.29438 10.5523 5.29438 9.29633V8.8703C5.29438 7.18834 5.71379 6.08852 6.57745 5.01186C7.86152 3.4417 9.91981 2.5 11.9562 2.5H12.0457Z" fill="#404040"/>
</svg>
