<svg width="20" height="17" viewBox="0 0 20 17" fill="none" xmlns="http://www.w3.org/2000/svg">
<path d="M17.7429 0.313414C12.4749 -0.10382 7.20682 -0.10382 1.93882 0.313414C1.10604 0.379367 0.433945 1.02549 0.345727 1.85616C-0.115242 6.19482 -0.115242 10.5335 0.345727 14.8721C0.433992 15.7029 1.10609 16.3489 1.93882 16.4149C7.20687 16.8321 12.4749 16.8321 17.7429 16.4149C18.5757 16.3489 19.2478 15.7028 19.336 14.8721C19.797 10.5335 19.797 6.19482 19.336 1.85616C19.2477 1.02549 18.5756 0.379367 17.7429 0.313414Z" fill="#F4DD45"/>
<path d="M2.95419 16.4898C2.61561 16.4664 2.27699 16.4419 1.93841 16.4147C1.1061 16.3485 0.433957 15.7029 0.345691 14.8718C-0.11523 10.5332 -0.11523 6.19451 0.345691 1.85585C0.433957 1.02546 1.1061 0.379149 1.93841 0.312962C2.27699 0.286477 2.61557 0.261259 2.95419 0.237915C2.64144 0.532384 2.43149 0.934009 2.38358 1.38673C1.88924 6.03813 1.88924 10.6895 2.38358 15.3409C2.43149 15.7936 2.64144 16.1959 2.95419 16.4898Z" fill="#ECBE6B"/>
<path d="M12.6783 0.0406758V8.7035L9.84088 6.72678L7.00415 8.7035V0.0406758C8.8957 -0.0135586 10.7867 -0.0135586 12.6783 0.0406758Z" fill="#DA4A54"/>
</svg>
