<svg width="12" height="12" viewBox="0 0 12 12" fill="none" xmlns="http://www.w3.org/2000/svg">
<path d="M6.20085 11.2756L5.97501 10.8307L5.97501 10.8307L6.20085 11.2756ZM5.79911 11.2756L5.57326 11.7205L5.57326 11.7205L5.79911 11.2756ZM10.1677 5.37321C10.1677 6.89891 9.37251 8.14093 8.41852 9.08209C7.46561 10.0222 6.39995 10.615 5.97501 10.8307L6.4267 11.7205C6.89558 11.4825 8.06281 10.8348 9.11934 9.79246C10.1748 8.7512 11.1656 7.26889 11.1656 5.37321H10.1677ZM5.99998 1.20549C8.30175 1.20549 10.1677 3.07144 10.1677 5.37321H11.1656C11.1656 2.52032 8.85287 0.2076 5.99998 0.2076V1.20549ZM1.83226 5.37321C1.83226 3.07144 3.69821 1.20549 5.99998 1.20549V0.2076C3.14709 0.2076 0.83437 2.52032 0.83437 5.37321H1.83226ZM6.02495 10.8307C5.60001 10.615 4.53435 10.0222 3.58144 9.08209C2.62745 8.14093 1.83226 6.89891 1.83226 5.37321H0.83437C0.83437 7.26889 1.82516 8.7512 2.88062 9.79246C3.93715 10.8348 5.10438 11.4825 5.57326 11.7205L6.02495 10.8307ZM5.97501 10.8307C5.99022 10.823 6.00974 10.823 6.02495 10.8307L5.57326 11.7205C5.84193 11.8569 6.15803 11.8569 6.4267 11.7205L5.97501 10.8307ZM7.50102 5.37313C7.50102 6.20215 6.82898 6.87419 5.99997 6.87419V7.87208C7.38009 7.87208 8.49891 6.75326 8.49891 5.37313H7.50102ZM5.99997 3.87208C6.82898 3.87208 7.50102 4.54412 7.50102 5.37313H8.49891C8.49891 3.99301 7.38009 2.87419 5.99997 2.87419V3.87208ZM4.49891 5.37313C4.49891 4.54412 5.17095 3.87208 5.99997 3.87208V2.87419C4.61984 2.87419 3.50102 3.99301 3.50102 5.37313H4.49891ZM5.99997 6.87419C5.17095 6.87419 4.49891 6.20215 4.49891 5.37313H3.50102C3.50102 6.75326 4.61984 7.87208 5.99997 7.87208V6.87419Z" fill="#757575"/>
</svg>
