<svg width="11" height="10" viewBox="0 0 11 10" fill="none" xmlns="http://www.w3.org/2000/svg">
<path d="M8.94029 6.21031C8.81107 6.33555 8.75169 6.51666 8.78113 6.69429L9.22469 9.14909C9.26211 9.35714 9.1743 9.5677 9.00016 9.68794C8.82953 9.81268 8.60251 9.82765 8.4164 9.72786L6.20658 8.5753C6.12975 8.53439 6.04443 8.51243 5.95711 8.50994H5.8219C5.775 8.51693 5.7291 8.53189 5.68718 8.55484L3.47687 9.71289C3.3676 9.76778 3.24386 9.78723 3.12262 9.76778C2.82724 9.71189 2.63016 9.43049 2.67856 9.13362L3.12262 6.67882C3.15205 6.4997 3.09268 6.31758 2.96345 6.19035L1.16177 4.44405C1.01109 4.29786 0.958701 4.07833 1.02756 3.88025C1.09441 3.68267 1.26505 3.53847 1.47112 3.50604L3.95086 3.1463C4.13946 3.12684 4.30511 3.01209 4.38993 2.84245L5.48262 0.602192C5.50856 0.552298 5.54199 0.506395 5.58241 0.467478L5.62731 0.432551C5.65076 0.406606 5.6777 0.385152 5.70764 0.367689L5.76203 0.347731L5.84685 0.312805H6.0569C6.2445 0.332264 6.40965 0.444526 6.49597 0.612171L7.60313 2.84245C7.68296 3.0056 7.83813 3.11886 8.01725 3.1463L10.497 3.50604C10.7066 3.53598 10.8817 3.68067 10.951 3.88025C11.0164 4.08032 10.96 4.29986 10.8063 4.44405L8.94029 6.21031Z" fill="#FF8B33"/>
</svg>
